<?xml version="1.0" encoding="utf-8"?>
<!-- Generator: Adobe Illustrator 26.0.0, SVG Export Plug-In . SVG Version: 6.00 Build 0)  -->
<svg version="1.1" id="Layer_1" xmlns="http://www.w3.org/2000/svg" xmlns:xlink="http://www.w3.org/1999/xlink" x="0px" y="0px"
	 viewBox="0 0 2880 1800" style="enable-background:new 0 0 2880 1800;" xml:space="preserve">
<style type="text/css">
	.st0{fill:#6c6ca2;}
</style>
<path class="st0" d="M1840,200h-800c-331.4,0-600,268.6-600,600v200c0,331.4,268.6,600,600,600h800c331.4,0,600-268.6,600-600V800
	C2440,468.6,2171.4,200,1840,200z M1740,1300h-600c-220.9,0-400-179.1-400-400s179.1-400,400-400h600c220.9,0,400,179.1,400,400
	S1960.9,1300,1740,1300z"/>
<path class="st0" d="M1190,750h500c82.8,0,150,67.2,150,150l0,0c0,82.8-67.2,150-150,150h-500c-82.8,0-150-67.2-150-150l0,0
	C1040,817.2,1107.2,750,1190,750z"/>
</svg>
